<?xml version="1.0" standalone="no"?>
<!DOCTYPE svg PUBLIC "-//W3C//DTD SVG 20010904//EN"
 "http://www.w3.org/TR/2001/REC-SVG-20010904/DTD/svg10.dtd">
<svg version="1.0" xmlns="http://www.w3.org/2000/svg"
 width="2421.000000pt" height="1017.000000pt" viewBox="0 0 2421.000000 1017.000000"
 preserveAspectRatio="xMidYMid meet">
<metadata>
Created by potrace 1.14, written by Peter Selinger 2001-2017
</metadata>
<g transform="translate(0.000000,1017.000000) scale(0.100000,-0.100000)"
fill="#000000" stroke="none">
<path d="M5490 8410 c0 -16 5 -30 10 -30 14 0 13 -23 -2 -38 -9 -9 -16 -8 -29
4 -26 24 -57 9 -65 -31 -12 -66 24 -98 66 -60 15 14 18 13 33 -3 15 -17 16
-23 2 -69 -8 -28 -22 -56 -31 -64 -42 -34 -57 -117 -29 -155 8 -10 15 -22 15
-26 0 -3 -27 -15 -59 -26 l-60 -20 -27 81 c-15 45 -31 87 -36 93 -10 13 -132
13 -160 0 -10 -5 -18 -4 -18 1 0 6 -57 8 -137 6 -123 -3 -144 -6 -190 -29 -89
-43 -151 -143 -160 -258 -4 -53 -1 -68 25 -120 17 -32 28 -64 25 -71 -7 -19
24 -72 52 -91 13 -8 25 -27 27 -42 2 -17 15 -34 34 -47 28 -18 32 -27 38 -82
4 -42 3 -69 -6 -82 -10 -16 -9 -23 5 -39 14 -15 15 -25 7 -53 -13 -43 -5 -82
24 -117 13 -15 26 -40 30 -55 5 -20 17 -33 43 -44 62 -25 179 -52 289 -65
l106 -12 -7 -80 c-17 -213 -61 -487 -78 -487 -9 -1 -225 170 -261 206 -13 13
-69 47 -125 74 -56 28 -101 53 -101 55 0 2 16 13 35 25 19 11 35 24 35 29 0 4
-42 16 -94 25 -52 10 -212 52 -357 94 -212 61 -278 76 -335 77 l-72 1 -58 -56
c-43 -40 -72 -59 -105 -67 -86 -22 -129 -77 -129 -167 0 -50 18 -103 42 -123
14 -11 20 -6 42 33 20 33 33 45 50 45 21 0 123 -63 196 -120 l25 -20 -70 0
c-72 0 -168 -32 -149 -49 5 -4 56 -23 114 -42 98 -32 114 -34 241 -35 155 0
148 2 259 -93 114 -98 147 -137 204 -239 58 -104 71 -149 85 -289 l7 -72 -46
-11 c-95 -24 -90 -17 -90 -129 l0 -99 -77 -7 c-43 -3 -154 -15 -248 -26 -296
-33 -376 -25 -410 42 l-16 31 78 81 c93 98 116 140 121 229 3 55 0 76 -20 120
-64 136 -217 218 -408 218 -152 0 -282 -47 -559 -203 -84 -48 -158 -87 -165
-87 -6 1 -29 31 -50 68 -69 118 -265 412 -275 412 -5 0 -8 -15 -6 -32 3 -18
12 -132 21 -253 12 -168 22 -239 40 -301 13 -44 24 -83 24 -86 0 -3 -28 -25
-62 -48 -35 -24 -144 -125 -243 -226 -99 -100 -210 -205 -248 -234 -37 -28
-65 -55 -62 -60 2 -4 18 -10 35 -14 17 -3 29 -10 26 -14 -8 -14 -246 -198
-416 -322 -230 -168 -650 -444 -948 -623 -144 -87 -267 -168 -273 -179 -28
-51 43 -57 271 -22 84 13 250 51 305 69 11 4 -15 -13 -57 -39 -87 -52 -114
-81 -95 -104 16 -20 164 -9 323 23 144 30 137 29 125 6 -8 -14 -7 -22 4 -31
18 -15 150 -8 293 16 89 15 94 15 107 -3 12 -16 26 -18 115 -15 123 3 271 24
403 57 113 29 127 30 127 11 0 -21 80 -27 220 -16 178 13 312 40 498 101 51
17 99 28 107 25 11 -4 175 -476 175 -505 0 -11 -117 -30 -230 -38 -50 -3 -90
-7 -90 -9 0 -2 10 -24 22 -49 15 -30 31 -48 46 -52 25 -6 203 3 251 13 22 4
21 2 -9 -14 -65 -36 -88 -79 -67 -122 9 -19 23 -26 52 -30 l40 -5 -38 -23
c-70 -44 -58 -124 20 -130 l40 -3 -4 -42 c-7 -59 9 -70 112 -75 l84 -4 40
-103 c51 -131 50 -129 21 -153 l-24 -20 30 -48 c71 -116 210 -126 287 -22 22
29 34 118 23 163 -6 23 -11 25 -48 23 l-41 -3 -23 80 c-34 122 -35 121 40 135
62 12 66 11 190 -29 107 -35 286 -82 451 -118 38 -9 40 -10 36 -44 -9 -73 -7
-84 15 -87 27 -4 87 64 110 124 15 39 19 43 41 38 20 -5 32 2 69 41 24 26 44
52 44 56 0 5 4 9 9 9 4 0 11 -48 14 -108 10 -195 47 -321 121 -418 20 -26 36
-54 36 -63 0 -23 45 -116 76 -156 14 -19 57 -55 94 -80 45 -30 77 -60 93 -88
14 -23 47 -62 74 -85 57 -51 181 -142 192 -142 5 0 14 7 21 15 7 8 42 34 79
58 70 47 139 116 164 164 9 16 42 46 75 66 78 48 127 104 164 186 44 98 56
121 92 179 45 70 73 178 87 335 l12 128 48 -52 c39 -42 52 -50 72 -46 21 6 26
1 46 -47 25 -61 80 -120 107 -114 20 4 23 28 11 86 -4 22 -3 34 6 36 6 3 84
21 172 41 88 21 221 57 295 81 l135 43 -37 -33 c-21 -18 -38 -37 -38 -41 0
-16 102 5 149 31 33 18 56 24 71 19 22 -7 21 -8 -11 -41 -18 -18 -30 -37 -26
-40 9 -10 97 15 133 37 30 18 94 27 94 12 0 -4 -14 -22 -32 -40 -17 -18 -28
-36 -24 -40 12 -12 98 16 149 49 53 34 78 37 220 23 72 -7 77 -6 77 12 0 25
-48 100 -89 137 -39 37 -39 46 -1 46 26 0 30 -3 30 -29 0 -52 60 -72 101 -35
16 15 20 26 15 54 -5 33 -3 37 37 58 87 46 224 185 198 201 -7 5 -10 18 -6 33
4 16 0 32 -13 49 l-20 24 33 45 c35 47 69 135 60 151 -4 5 -13 5 -24 0 -15 -9
-17 -6 -13 20 5 34 -12 59 -40 59 -16 0 -19 4 -14 23 4 12 10 57 13 100 3 42
9 77 12 77 3 0 60 -12 126 -25 209 -44 475 -54 475 -19 0 19 17 18 128 -10
128 -33 284 -55 405 -58 86 -3 100 -1 112 15 13 18 18 18 107 3 143 -24 275
-31 293 -16 11 9 12 17 4 31 -12 23 -19 24 125 -6 159 -32 307 -43 323 -23 19
23 -8 52 -95 104 -42 26 -68 43 -57 39 55 -18 221 -56 305 -69 228 -35 299
-29 271 22 -6 11 -129 92 -273 179 -298 179 -718 455 -948 623 -170 124 -408
308 -416 322 -3 4 9 11 26 14 17 4 33 10 35 14 3 5 -25 32 -62 60 -38 29 -149
134 -248 235 -190 193 -287 268 -436 337 l-69 32 20 21 21 22 -186 102 c-359
198 -437 230 -582 238 -160 10 -289 -30 -376 -115 -65 -63 -89 -112 -95 -193
-6 -93 24 -156 124 -259 l76 -78 -16 -31 c-35 -67 -115 -75 -411 -42 -93 11
-205 23 -247 26 l-78 7 0 99 c0 112 5 105 -90 129 l-46 11 7 72 c13 135 27
183 79 278 69 124 82 140 173 218 157 133 137 125 294 125 129 1 145 3 243 35
58 19 109 38 114 42 17 15 -61 42 -137 48 l-79 6 29 21 c96 71 167 114 188
114 18 0 31 -12 51 -45 22 -39 28 -44 42 -33 24 20 42 73 42 123 0 90 -43 145
-129 167 -33 8 -63 28 -109 71 l-64 60 -67 -6 c-36 -3 -185 -40 -330 -81 -145
-41 -305 -83 -357 -93 -52 -9 -94 -21 -94 -25 0 -5 16 -18 35 -29 19 -12 35
-23 35 -25 0 -2 -45 -27 -101 -55 -56 -27 -112 -61 -125 -74 -13 -14 -57 -50
-97 -82 -39 -31 -92 -74 -116 -95 -24 -21 -47 -36 -51 -33 -18 11 -79 426 -80
541 l0 31 73 7 c102 10 264 44 314 66 31 14 44 26 49 47 4 15 17 40 30 55 29
35 37 74 24 117 -8 28 -7 38 7 53 14 16 15 23 5 39 -9 13 -10 40 -6 82 6 55
10 64 38 82 19 13 32 30 34 47 2 15 14 34 27 42 30 19 59 72 51 92 -3 8 6 33
21 55 23 35 26 50 26 119 -2 129 -57 226 -157 275 -49 24 -66 27 -190 29 -79
1 -136 -1 -136 -7 0 -5 -8 -6 -17 -1 -29 13 -151 13 -161 0 -5 -6 -21 -48 -36
-93 l-27 -81 -60 20 c-32 11 -59 23 -59 26 0 4 7 16 15 26 26 35 19 97 -16
139 -17 21 -38 59 -45 84 -13 42 -12 48 3 65 15 16 18 17 33 3 42 -38 78 -6
66 60 -7 38 -38 54 -61 35 -19 -16 -52 7 -35 24 5 5 10 23 10 38 0 27 -1 28
-55 28 -54 0 -55 0 -55 -30z m124 -316 c48 -49 29 -141 -34 -163 -39 -13 -94
3 -114 34 -19 29 -21 95 -3 117 36 46 111 51 151 12z m-630 -40 c56 -8 46 12
123 -242 l55 -185 -31 -24 c-39 -30 -40 -65 -4 -100 l26 -27 -57 -53 c-31 -29
-64 -53 -72 -53 -8 0 -37 11 -64 25 -48 24 -71 45 -50 45 6 0 22 11 35 25 35
34 34 86 -2 115 -27 21 -32 21 -107 8 -15 -2 -24 10 -44 57 -47 117 -40 191
28 268 41 47 53 47 36 0 -21 -59 -28 -113 -16 -113 5 0 10 7 10 15 0 8 11 49
25 92 13 42 22 79 20 82 -11 10 -89 -54 -115 -96 -45 -70 -49 -146 -13 -238 5
-14 3 -17 -10 -12 -9 3 -30 2 -46 -3 -28 -8 -33 -5 -53 23 -33 46 -33 173 1
237 66 127 168 175 325 154z m140 -101 c43 -131 136 -459 136 -481 0 -13 -3
-12 -21 3 -16 15 -19 26 -14 56 5 29 2 42 -18 65 -16 19 -46 99 -86 230 -65
213 -69 234 -47 234 9 0 27 -38 50 -107z m164 37 c77 -215 115 -390 84 -390
-4 0 -36 98 -71 218 -36 119 -67 223 -69 231 -3 8 2 12 14 9 13 -2 26 -24 42
-68z m568 53 c-2 -10 -25 -85 -50 -168 -25 -82 -53 -178 -62 -212 -18 -67 -30
-78 -40 -39 -6 25 18 120 83 324 29 92 39 112 55 112 14 0 18 -5 14 -17z m174
0 c0 -42 -124 -420 -147 -447 -20 -23 -23 -36 -18 -65 5 -30 2 -41 -14 -56
-30 -26 -28 -14 23 171 71 255 125 414 142 414 7 0 14 -8 14 -17z m279 -13
c121 -62 186 -240 129 -350 -14 -28 -29 -44 -38 -42 -8 2 -30 4 -48 4 -26 0
-32 3 -28 15 35 89 30 167 -13 234 -26 41 -106 108 -116 97 -3 -3 3 -29 13
-59 11 -30 22 -71 26 -91 4 -21 11 -38 16 -38 13 0 13 5 -9 83 -10 37 -15 67
-11 67 14 0 72 -73 87 -109 20 -46 12 -118 -19 -196 -20 -47 -29 -59 -44 -57
-75 13 -80 13 -107 -8 -36 -29 -37 -81 -2 -115 13 -14 29 -25 35 -25 21 0 -2
-21 -50 -45 -27 -14 -56 -25 -64 -25 -8 0 -41 24 -72 53 l-57 53 26 27 c36 35
35 70 -4 100 l-31 24 55 185 c75 247 70 236 109 241 62 9 180 -4 217 -23z
m-808 -144 c-27 -28 -27 -68 0 -92 l21 -19 -23 -18 c-15 -12 -25 -33 -28 -60
-5 -37 -9 -42 -33 -45 -16 -2 -28 -2 -28 0 0 2 -13 50 -30 108 -16 58 -26 108
-21 113 14 14 123 44 143 39 18 -4 18 -5 -1 -26z m182 8 c26 -9 49 -19 52 -23
2 -5 -9 -55 -25 -112 -17 -57 -30 -105 -30 -107 0 -2 -12 -2 -27 0 -25 3 -29
8 -34 46 -3 28 -13 48 -27 58 -21 15 -21 15 -2 34 26 26 25 68 -2 97 l-21 23
34 0 c20 0 56 -7 82 -16z m-103 -411 c14 -9 45 -34 69 -55 27 -23 54 -38 70
-38 15 0 62 21 105 46 l78 45 56 -54 c76 -72 94 -81 136 -67 18 6 54 24 81 41
45 29 75 32 75 9 0 -15 -120 -89 -157 -96 -47 -9 -71 3 -136 64 -54 52 -60 55
-80 42 -144 -92 -179 -92 -280 -3 -20 18 -44 33 -52 33 -8 0 -32 -15 -52 -33
-101 -89 -136 -89 -280 3 -20 13 -26 10 -80 -42 -65 -62 -89 -73 -138 -64 -37
7 -155 80 -155 96 0 23 30 20 75 -9 27 -17 63 -35 81 -41 42 -14 60 -5 136 67
l56 54 78 -45 c97 -57 121 -58 177 -8 50 46 87 72 102 72 6 0 22 -8 35 -17z
m247 -164 c129 -10 336 -41 406 -60 21 -5 37 -16 37 -24 0 -19 -1 -19 -173 10
-215 36 -401 48 -642 42 -210 -6 -393 -24 -526 -52 -88 -19 -109 -19 -109 0 0
18 39 29 201 55 238 38 556 50 806 29z m-467 -89 l-45 -40 43 -40 c51 -46 53
-45 -93 -54 -49 -3 -119 -8 -155 -12 l-65 -6 38 32 c20 17 37 38 37 46 0 7
-18 27 -40 43 -23 16 -37 32 -32 35 5 3 43 9 83 12 l74 7 -32 -37 c-18 -20
-33 -41 -33 -46 0 -11 70 -60 85 -60 6 0 28 17 49 39 l38 39 -47 33 -48 34 44
6 c24 3 67 7 94 7 l50 2 -45 -40z m260 -20 c16 -13 21 -23 14 -27 -5 -5 -27
-21 -47 -37 -34 -26 -40 -28 -62 -16 -13 7 -35 25 -49 39 l-26 27 47 36 47 36
26 -19 c14 -10 36 -28 50 -39z m200 52 l55 -7 -48 -34 -49 -33 38 -39 c21 -22
43 -39 49 -39 15 0 85 49 85 60 0 5 -14 25 -31 45 l-31 35 28 0 c48 0 134 -12
134 -19 -1 -3 -19 -18 -40 -33 -22 -15 -40 -34 -40 -42 0 -8 17 -29 37 -47
l37 -32 -64 7 c-36 3 -105 9 -155 12 -146 9 -144 8 -93 54 l43 40 -45 40 -45
40 40 -1 c22 -1 65 -4 95 -7z m360 -52 l25 -7 -25 -11 c-83 -34 -100 -43 -100
-52 0 -6 16 -28 36 -50 38 -42 34 -49 -19 -26 -31 13 -115 92 -106 100 2 2 26
18 53 34 49 32 62 33 136 12z m-216 -145 c169 -22 255 -56 228 -88 -17 -20
-131 -54 -242 -72 -122 -19 -170 -20 -170 -1 0 10 17 16 58 21 102 11 283 48
275 56 -5 5 -53 16 -108 26 -145 25 -761 26 -915 0 -57 -9 -108 -21 -112 -25
-9 -9 170 -46 275 -57 40 -5 57 -11 57 -21 0 -18 -49 -18 -165 1 -150 25 -244
55 -252 82 -9 25 110 65 243 82 120 15 705 12 828 -4z m-594 -113 c0 -32 -5
-119 -11 -193 -55 -707 -265 -1101 -654 -1225 l-70 -22 2 -139 c3 -248 67
-580 163 -843 93 -255 246 -535 417 -762 101 -134 310 -368 328 -368 16 0 181
180 287 313 218 273 403 624 502 950 75 248 117 500 120 715 l1 134 -70 22
c-202 64 -363 213 -475 436 -100 200 -171 540 -187 893 -6 143 -5 149 13 145
17 -3 20 -16 26 -138 24 -464 107 -788 261 -1015 112 -164 239 -252 442 -304
l41 -11 -4 -102 c-4 -148 -29 -363 -59 -508 -89 -444 -305 -901 -592 -1258
-98 -122 -288 -322 -306 -322 -18 0 -210 201 -305 320 -395 495 -623 1098
-647 1707 -5 135 -4 163 8 167 199 58 271 97 374 201 202 206 317 557 347
1063 11 183 14 202 30 202 15 0 18 -9 18 -58z m-1038 -157 c145 -42 302 -84
350 -93 49 -9 88 -20 88 -23 0 -3 -11 -11 -25 -17 -49 -22 -127 -14 -264 29
-74 23 -144 39 -163 37 -27 -3 -20 -6 40 -20 81 -19 169 -55 159 -64 -14 -14
-175 19 -298 61 -129 44 -200 58 -216 42 -4 -5 -3 -11 2 -15 6 -4 18 -23 28
-43 34 -66 93 -76 141 -24 l23 25 59 -20 c66 -23 208 -50 261 -50 28 0 34 3
29 16 -5 12 -2 15 11 10 10 -4 50 -11 90 -16 56 -7 96 -21 183 -65 60 -30 110
-58 110 -62 0 -7 -228 3 -251 12 -10 4 -28 -4 -45 -19 l-30 -24 -149 37 c-83
21 -160 41 -173 45 -39 13 -24 -11 26 -40 52 -30 152 -121 152 -137 0 -6 -9
-21 -21 -33 -19 -20 -19 -24 -5 -70 20 -68 27 -104 20 -104 -3 0 -31 23 -62
51 -31 28 -70 58 -88 67 -23 10 -34 24 -38 46 -8 37 -93 122 -189 186 -37 25
-69 54 -73 65 -3 11 -28 66 -56 123 l-51 103 29 30 c44 46 91 41 396 -46z
m2822 46 l29 -30 -51 -103 c-28 -57 -53 -112 -57 -123 -3 -11 -42 -45 -86 -75
-95 -66 -167 -139 -175 -178 -4 -20 -16 -34 -38 -44 -18 -9 -57 -39 -88 -67
-31 -28 -59 -51 -62 -51 -7 0 0 36 20 104 14 46 14 50 -5 70 -12 12 -21 27
-21 33 0 16 100 107 153 137 49 29 64 53 25 40 -13 -4 -90 -24 -173 -45 l-149
-37 -30 24 c-17 15 -35 23 -45 19 -23 -9 -251 -19 -251 -12 0 4 50 32 110 62
87 44 127 58 183 65 40 5 80 12 90 16 13 5 16 2 11 -10 -5 -13 1 -16 29 -16
53 0 195 27 261 50 l59 20 23 -25 c48 -52 107 -42 141 24 10 20 22 39 28 43 5
4 6 10 2 15 -16 16 -87 2 -216 -42 -123 -42 -284 -75 -298 -61 -10 9 78 45
159 64 60 14 67 17 40 20 -19 2 -89 -14 -163 -37 -137 -43 -215 -51 -264 -29
-14 6 -25 14 -25 17 0 3 39 14 88 23 48 9 191 47 317 83 284 82 289 83 351 84
43 1 54 -3 78 -28z m-3211 -143 c25 -51 48 -103 52 -115 3 -13 43 -49 88 -82
97 -70 180 -154 175 -179 -3 -15 -19 -17 -114 -20 -103 -2 -118 0 -215 31 -99
33 -103 35 -76 46 55 22 169 12 290 -25 9 -3 17 -1 17 3 0 5 -32 24 -71 43
-39 18 -106 59 -150 91 -128 92 -169 99 -205 34 -10 -19 -22 -35 -25 -35 -13
0 -29 63 -29 112 0 64 23 103 75 128 58 28 72 25 94 -17 17 -35 61 -84 61 -70
0 4 -13 28 -30 54 -16 26 -30 51 -30 56 0 10 30 36 41 37 3 0 27 -42 52 -92z
m3282 72 c18 -19 17 -21 -13 -71 -18 -28 -32 -53 -32 -56 0 -14 44 35 61 70
22 42 36 45 94 17 52 -25 75 -64 75 -128 0 -49 -16 -112 -29 -112 -3 0 -15 16
-25 35 -36 65 -77 58 -205 -34 -44 -32 -111 -73 -150 -91 -39 -19 -71 -38 -71
-43 0 -4 8 -6 18 -3 119 37 234 47 289 25 27 -10 23 -13 -77 -45 -97 -32 -113
-34 -215 -32 -95 3 -110 5 -113 20 -5 25 78 109 175 179 45 33 85 70 88 82 10
34 98 207 105 207 4 0 15 -9 25 -20z m-2720 -289 l120 -30 26 26 c26 24 28 24
59 8 75 -39 220 -218 197 -242 -18 -17 -163 46 -297 130 -28 18 -21 5 42 -66
99 -113 157 -227 116 -227 -32 0 -123 54 -173 101 -75 71 -83 53 -9 -22 l59
-60 3 -82 4 -82 -42 65 c-23 36 -58 84 -77 108 -23 28 -42 67 -53 110 -10 37
-21 74 -24 83 -5 10 3 28 19 47 l26 31 -65 66 c-36 36 -62 65 -58 65 4 0 61
-13 127 -29z m2151 -37 l-66 -65 26 -34 c14 -19 22 -39 19 -46 -4 -6 -15 -41
-25 -78 -12 -48 -31 -84 -68 -133 -28 -37 -63 -88 -78 -113 -14 -25 -27 -45
-28 -43 -2 2 0 40 4 86 l7 83 58 59 c73 74 65 92 -10 21 -50 -48 -141 -101
-174 -101 -21 0 -6 55 32 119 17 30 60 84 94 120 35 36 63 67 63 69 0 3 -34
-16 -120 -69 -69 -42 -195 -88 -207 -75 -24 23 123 203 197 241 31 16 33 16
59 -9 l27 -26 110 29 c60 16 117 30 127 30 12 1 -3 -20 -47 -65z m-1606 -35
c122 -96 176 -146 167 -155 -14 -14 -177 34 -272 81 -63 30 -106 60 -142 97
l-52 53 107 -5 108 -5 84 -66z m1240 25 c-39 -40 -81 -68 -145 -99 -95 -47
-258 -95 -272 -81 -9 9 45 59 167 155 l84 66 96 6 c52 3 102 6 110 7 8 1 -10
-23 -40 -54z m-1129 -219 c22 -14 39 -28 39 -32 0 -16 -53 -149 -65 -161 -22
-24 -83 15 -112 73 -14 27 -36 64 -49 81 -18 25 -74 137 -74 149 0 8 228 -88
261 -110z m1004 50 c-14 -31 -36 -71 -49 -89 -13 -17 -36 -55 -50 -83 -20 -40
-35 -57 -62 -68 -20 -8 -40 -15 -44 -15 -7 0 -70 153 -70 170 0 18 67 56 180
101 63 26 116 46 118 45 1 -2 -9 -29 -23 -61z m-1417 6 c20 -10 67 -28 104
-40 76 -25 117 -63 154 -146 24 -53 42 -145 28 -145 -15 0 -139 79 -182 116
-26 22 -53 58 -67 90 -13 29 -38 74 -55 99 -17 25 -28 45 -25 45 3 0 22 -8 43
-19z m1612 -26 c-17 -25 -42 -70 -55 -99 -14 -32 -41 -68 -67 -90 -43 -37
-167 -116 -182 -116 -16 0 5 95 34 155 43 90 57 102 158 140 50 19 100 39 109
44 33 19 34 11 3 -34z m-3674 -252 c102 -157 136 -218 162 -293 43 -123 742
-2173 742 -2177 0 -2 -31 12 -68 31 l-69 35 -36 103 c-20 57 -153 445 -296
863 -376 1103 -401 1173 -401 1138 0 -10 270 -808 594 -1757 64 -187 116 -346
116 -354 0 -18 -51 -132 -59 -132 -7 0 -41 100 -476 1375 l-304 890 -16 210
c-8 116 -17 222 -20 238 -2 15 -3 27 -1 27 2 0 62 -89 132 -197z m2061 75 c48
-19 53 -24 72 -77 30 -82 37 -131 19 -131 -11 0 -18 -23 -27 -87 -16 -117 -27
-148 -57 -162 -34 -15 -34 -16 -34 27 0 20 -7 75 -16 122 -19 104 -31 195 -37
278 -5 56 -3 63 11 57 10 -4 40 -16 69 -27z m1675 -50 c-2 -46 -12 -126 -23
-178 -11 -52 -22 -128 -26 -168 -5 -58 -9 -72 -20 -67 -8 3 -19 5 -24 5 -17 0
-36 62 -49 158 -10 68 -17 92 -27 92 -19 0 -10 63 21 139 20 51 24 55 81 76
33 13 62 23 65 24 3 0 4 -36 2 -81z m-1517 -25 c45 -35 51 -45 73 -117 l24
-78 -34 -35 c-33 -36 -148 -126 -154 -121 -7 8 25 183 35 186 18 6 13 108 -9
164 -11 29 -20 54 -20 56 0 6 36 -18 85 -55z m1345 -1 c-22 -56 -27 -158 -9
-164 9 -3 42 -178 35 -185 -7 -7 -96 61 -139 105 l-48 49 22 78 c22 76 24 78
88 125 36 27 67 47 68 46 2 -1 -6 -26 -17 -54z m-2537 17 c169 -33 287 -153
287 -294 0 -84 -33 -150 -120 -239 -90 -94 -92 -125 -10 -175 45 -27 122 -28
353 -2 94 11 210 23 256 27 93 8 101 3 101 -53 0 -37 26 -30 -260 -69 -430
-59 -583 -22 -614 148 -8 42 9 96 48 160 15 23 43 68 62 98 27 42 34 65 34
103 0 63 -24 97 -92 131 -92 46 -263 32 -456 -36 -94 -33 -167 -67 -159 -74 2
-2 46 12 98 32 214 83 411 108 507 64 23 -10 42 -23 42 -29 0 -17 -77 -76
-145 -109 -221 -111 -476 -139 -680 -77 -66 20 -71 24 -89 67 l-16 37 128 72
c389 222 514 259 725 218z m3942 -6 c33 -8 91 -28 130 -44 92 -40 485 -258
485 -270 0 -6 -33 -25 -72 -44 -179 -84 -419 -83 -657 4 -114 42 -241 122
-241 153 0 5 19 18 43 28 95 44 292 19 506 -64 103 -40 131 -41 54 -3 -122 61
-306 107 -434 107 -72 0 -93 -4 -137 -26 -68 -34 -92 -68 -92 -131 0 -38 7
-61 34 -103 19 -30 47 -75 62 -98 39 -64 56 -118 48 -160 -22 -124 -117 -176
-314 -175 -85 0 -358 31 -527 59 -35 5 -40 21 -26 73 6 23 7 23 92 17 47 -4
162 -16 254 -26 226 -27 312 -26 357 1 82 50 80 81 -10 175 -87 89 -120 155
-120 239 0 224 269 361 565 288z m-3825 -257 c18 -54 4 -81 -64 -130 -78 -56
-153 -135 -209 -222 -50 -77 -169 -296 -164 -301 2 -1 39 58 82 133 43 75 98
162 122 194 44 59 182 194 190 186 2 -2 -16 -34 -41 -70 -25 -36 -48 -82 -52
-101 -7 -39 -1 -130 11 -157 5 -14 -18 -43 -101 -125 -86 -85 -132 -122 -214
-170 -58 -34 -106 -60 -108 -58 -6 5 28 176 48 245 42 143 143 311 256 425 54
55 210 182 226 184 3 1 11 -14 18 -33z m3532 -28 c242 -183 380 -405 433 -701
9 -49 15 -90 13 -92 -11 -11 -224 131 -292 195 -108 102 -138 144 -125 176 14
38 11 130 -6 170 -8 20 -31 58 -51 86 -20 27 -34 51 -32 54 9 9 147 -127 196
-194 27 -37 80 -120 117 -184 37 -65 69 -118 72 -118 8 0 -105 208 -154 284
-56 86 -131 166 -209 222 -68 49 -82 76 -64 130 7 19 13 34 15 34 2 0 41 -28
87 -62z m-2132 -54 c-12 -27 -35 -83 -49 -124 -15 -41 -49 -111 -75 -155 l-48
-80 7 65 c4 36 14 80 21 99 8 19 12 36 9 39 -2 3 -12 -12 -21 -33 -31 -74
-174 -268 -188 -255 -3 4 17 44 45 90 55 92 111 201 82 160 -35 -48 -65 -80
-95 -101 l-30 -22 12 24 c7 13 34 47 60 75 27 28 62 78 79 111 29 59 92 125
156 164 25 16 32 17 43 5 12 -12 11 -21 -8 -62z m-1678 -78 c-74 -79 -114
-137 -169 -241 -23 -44 -43 -75 -43 -68 0 26 59 184 96 253 39 73 39 74 104
96 36 12 67 23 69 23 2 1 -24 -28 -57 -63z m4013 35 c49 -16 51 -19 96 -108
41 -82 89 -212 89 -238 0 -6 -20 26 -43 70 -54 102 -94 160 -163 235 -60 64
-58 68 21 41z m786 -27 c142 -69 206 -119 429 -339 113 -110 221 -212 240
-227 19 -14 31 -30 27 -34 -5 -5 -77 -9 -160 -8 -144 0 -157 2 -249 32 l-96
32 -51 68 c-72 98 -216 233 -370 347 l-134 100 59 10 c69 12 103 2 248 -73
101 -52 205 -126 351 -251 127 -109 185 -154 190 -150 4 5 -217 201 -310 276
-94 75 -168 121 -278 173 l-102 48 45 21 c25 11 50 21 56 21 6 0 53 -21 105
-46z m-4942 -66 c-46 -91 -68 -160 -85 -268 -17 -115 -42 -186 -57 -171 -16
16 -22 282 -8 360 18 98 30 114 93 127 94 20 92 22 57 -48z m2129 45 c5 -10
12 -48 15 -85 6 -66 5 -68 -23 -88 -32 -23 -109 -59 -126 -60 -8 0 -8 14 0 52
12 53 38 75 77 65 12 -3 15 1 11 19 -2 13 -1 44 2 69 8 47 28 60 44 28z m2190
6 c63 -11 64 -12 85 -58 16 -36 21 -74 25 -172 5 -138 -4 -259 -19 -259 -17 0
-38 66 -54 167 -16 110 -38 179 -84 271 -17 34 -28 62 -24 62 3 0 35 -5 71
-11z m-4460 -21 c-2 -7 -65 -59 -139 -115 l-134 -103 -11 28 c-29 69 -31 66
58 128 75 53 89 59 148 65 36 3 69 7 73 7 5 1 7 -4 5 -10z m4801 -77 c148
-106 273 -213 343 -295 59 -70 178 -242 178 -258 0 -4 -35 -8 -78 -8 -102 0
-213 28 -328 84 -89 43 -288 169 -311 197 -6 8 -13 69 -15 139 -3 69 -9 133
-13 144 -7 16 -5 17 11 8 33 -18 325 -256 437 -356 59 -53 107 -92 107 -88 0
26 -273 268 -469 416 -55 42 -103 81 -107 87 -5 8 14 10 67 8 74 -4 74 -5 178
-78z m-5434 39 c4 -6 10 -24 15 -40 8 -28 5 -33 -53 -77 -34 -26 -115 -95
-181 -153 -65 -58 -130 -115 -145 -127 -14 -12 -21 -22 -16 -23 6 0 64 45 130
101 200 168 267 220 278 216 6 -2 21 -35 35 -75 l23 -71 -63 -78 c-35 -43 -74
-93 -88 -111 -28 -37 -113 -70 -236 -92 -74 -13 -277 -10 -291 4 -4 4 8 20 27
34 19 14 125 115 235 223 177 174 296 279 317 279 4 0 10 -5 13 -10z m605 -65
c-5 -22 -10 -86 -10 -142 l0 -103 -75 -56 c-42 -31 -78 -55 -80 -52 -9 9 -65
181 -65 199 0 11 46 54 117 109 64 49 118 89 119 87 2 -1 -1 -20 -6 -42z
m2640 -34 c0 -39 -14 -47 -39 -22 -19 19 -19 19 -24 -1 -4 -15 -11 -18 -27
-13 -14 4 -20 2 -18 -6 2 -7 -7 -15 -20 -18 -13 -3 -23 -10 -22 -16 1 -5 -8
-12 -20 -15 -12 -3 -21 -8 -21 -12 2 -23 0 -28 -14 -28 -8 0 -15 -5 -15 -10 0
-12 35 3 42 17 1 5 28 25 58 46 56 38 87 46 107 26 7 -7 14 4 23 38 l13 48 9
-39 c10 -49 21 -62 16 -21 -2 20 1 30 10 29 6 -1 22 -2 35 -3 l22 -2 -22 -18
c-21 -17 -21 -20 -6 -32 30 -25 42 -76 49 -197 l7 -121 -27 -12 c-25 -12 -29
-10 -50 16 l-22 28 -14 -33 c-12 -29 -15 -31 -21 -14 -4 10 -8 30 -8 44 -1 14
-13 43 -27 64 -34 49 -40 101 -20 151 13 33 13 37 1 21 -22 -29 -29 -83 -16
-126 18 -61 14 -108 -9 -115 -49 -16 -154 20 -198 67 l-22 25 20 18 c11 10 20
24 20 30 0 7 7 15 15 19 8 3 15 10 15 16 0 19 -39 -13 -42 -35 -4 -28 -32 -30
-45 -2 -19 41 42 123 137 185 62 39 90 50 138 51 29 1 32 -2 32 -28z m-585
-28 c-18 -47 -15 -83 19 -191 42 -131 47 -231 18 -341 -15 -54 -21 -65 -48
-76 l-30 -12 2 86 c2 52 0 72 -4 51 -6 -28 -11 -34 -27 -32 -11 2 -24 7 -28
11 -7 7 6 106 49 393 4 28 3 39 -3 33 -5 -5 -23 -100 -38 -210 -16 -110 -30
-202 -31 -204 -7 -8 -64 22 -64 34 0 22 100 358 120 403 19 42 44 71 64 72 4
0 5 -8 1 -17z m171 -110 c25 -55 25 -58 7 -71 -20 -15 -109 -62 -118 -62 -3 0
-12 14 -19 31 -12 30 -11 36 18 85 27 47 54 71 79 73 4 1 19 -25 33 -56z
m-2714 -101 l18 -46 -33 -36 c-54 -58 -64 -78 -16 -32 25 23 48 42 51 42 7 0
48 -122 48 -140 0 -4 -35 -17 -78 -29 -95 -25 -248 -30 -239 -7 24 61 213 314
225 301 4 -3 14 -27 24 -53z m1832 22 c19 -49 7 -73 -78 -158 -134 -134 -283
-208 -390 -192 -25 4 -48 11 -51 15 -6 11 90 69 188 114 63 29 96 53 172 129
111 108 145 128 159 92z m2078 -88 c83 -84 173 -146 209 -146 21 0 160 -93
151 -102 -4 -4 -29 -11 -54 -14 -62 -9 -165 23 -248 77 -83 53 -220 192 -220
222 1 94 39 86 162 -37z m-2848 74 c25 -12 46 -23 46 -27 0 -15 -129 -148
-183 -189 -100 -75 -179 -108 -262 -108 -40 -1 -80 5 -93 12 -23 13 -23 14 -5
34 10 11 68 44 128 74 104 50 191 108 280 187 22 20 41 36 41 37 1 0 22 -9 48
-20z m3581 -42 c86 -76 144 -113 265 -170 52 -25 103 -54 113 -66 18 -20 18
-21 -5 -34 -13 -7 -53 -13 -93 -12 -83 0 -162 33 -263 109 -62 47 -177 168
-177 186 0 8 66 45 85 48 3 1 37 -27 75 -61z m-3054 3 c-168 -212 -366 -329
-500 -294 l-34 9 69 44 c38 24 117 93 176 152 90 91 112 108 138 108 27 0 29
-2 21 -19 -19 -35 -158 -157 -217 -189 -33 -18 -48 -30 -34 -26 59 15 130 65
214 151 88 89 105 99 169 102 l29 1 -31 -39z m2463 30 c26 -7 48 -21 69 -48
75 -94 185 -178 257 -197 14 -4 -1 8 -34 26 -59 32 -198 154 -217 189 -8 17
-6 19 21 19 26 0 48 -17 138 -108 59 -59 138 -128 176 -152 l69 -44 -34 -9
c-134 -35 -332 82 -500 294 -30 39 -31 39 -7 39 12 0 40 -5 62 -9z m-3560 -74
c6 -47 5 -50 -51 -119 l-57 -72 -13 41 c-14 40 -13 43 26 122 41 80 70 111 82
88 4 -7 9 -34 13 -60z m4709 -60 c30 -62 61 -128 70 -147 28 -57 9 4 -33 110
-21 52 -37 97 -35 98 2 2 24 -10 49 -27 40 -28 48 -39 65 -99 11 -37 25 -89
31 -117 14 -67 17 -199 5 -204 -5 -2 -30 37 -55 86 -46 91 -79 141 -162 252
-39 52 -48 70 -43 93 17 93 15 89 36 77 11 -5 43 -60 72 -122z m-4034 77 c-18
-20 -79 -70 -134 -111 -119 -90 -120 -90 -75 -68 60 30 146 92 207 149 56 51
62 54 127 61 l69 8 -21 -30 c-12 -17 -60 -67 -107 -111 -112 -106 -207 -155
-311 -160 -113 -6 -120 6 -36 61 38 26 110 89 158 141 78 83 93 95 123 95 l35
1 -35 -36z m3241 -18 c68 -64 128 -109 195 -145 33 -18 49 -24 35 -14 -101 73
-181 137 -215 172 l-39 41 32 0 c28 0 45 -13 124 -95 50 -52 122 -116 160
-142 84 -55 77 -67 -36 -61 -104 5 -199 54 -311 160 -47 44 -95 94 -107 111
l-21 30 69 -7 c63 -7 73 -11 114 -50z m-1564 13 c44 -47 101 -72 178 -78 l68
-6 40 -73 c22 -40 38 -76 35 -79 -4 -3 -24 2 -47 11 -22 9 -65 19 -97 22 -55
7 -58 9 -139 93 -63 65 -84 93 -84 114 0 35 9 34 46 -4z m-987 -90 c8 -49 8
-75 1 -84 -5 -6 -41 -26 -79 -44 -60 -28 -79 -32 -138 -29 l-68 3 65 47 c36
25 94 76 130 112 35 36 67 66 71 66 3 0 11 -32 18 -71z m1961 5 c36 -36 94
-87 130 -112 l65 -47 -68 -3 c-59 -3 -78 1 -138 29 -38 18 -74 38 -79 44 -11
13 7 155 19 155 4 0 36 -30 71 -66z m-3300 -54 c-6 -44 -7 -77 -1 -84 11 -13
-72 -111 -87 -102 -11 7 -36 90 -31 104 6 16 122 162 126 158 2 -2 -1 -36 -7
-76z m4686 -106 c63 -95 108 -191 130 -275 21 -82 16 -90 -43 -82 -125 16
-259 97 -388 235 -81 88 -101 116 -72 105 42 -16 125 -17 172 -3 49 16 50 16
70 -7 11 -13 55 -66 99 -118 88 -105 93 -110 81 -89 -16 29 -89 124 -142 186
-31 38 -48 66 -42 70 6 3 8 22 5 45 -3 21 -9 58 -12 81 l-7 43 48 -55 c25 -30
71 -91 101 -136z m260 60 c396 -320 791 -581 1145 -757 144 -71 329 -151 335
-144 2 1 -45 25 -104 52 -245 112 -536 277 -802 455 -232 155 -580 420 -535
408 11 -4 52 -14 90 -24 63 -17 93 -36 310 -193 257 -186 638 -443 825 -556
63 -38 228 -126 365 -196 272 -137 376 -196 383 -218 4 -12 -12 -13 -95 -8
-200 12 -426 74 -667 183 -219 98 -903 478 -1187 658 l-137 86 -7 67 c-6 61
-33 200 -51 261 -3 12 -2 22 3 22 5 0 63 -43 129 -96z m-5700 61 c-9 -14 -23
-36 -32 -50 -9 -14 -14 -28 -11 -31 3 -3 39 -9 79 -13 l73 -6 -78 -58 c-248
-185 -635 -451 -872 -599 -363 -226 -652 -349 -941 -398 -150 -26 -294 -36
-294 -22 0 14 70 61 360 238 428 261 820 529 1147 785 l151 119 71 0 c39 0 71
-3 71 -7 0 -8 -140 -112 -549 -411 -237 -174 -558 -389 -738 -496 -73 -43
-133 -80 -133 -82 0 -8 145 69 245 129 195 117 614 408 1042 725 187 139 190
140 288 166 54 15 101 29 104 31 2 3 11 5 19 5 12 0 12 -4 -2 -25z m6178 -11
c99 -26 101 -27 285 -163 443 -327 840 -604 1046 -728 100 -60 245 -137 245
-129 0 2 -48 32 -107 66 -156 90 -569 366 -778 520 -402 296 -534 395 -535
403 0 4 32 7 70 7 l71 0 157 -123 c359 -280 710 -519 1192 -812 234 -142 310
-193 310 -205 0 -14 -60 -12 -202 6 -302 39 -592 147 -923 345 -228 136 -703
458 -982 666 l-78 58 73 6 c40 4 76 10 79 13 3 3 -2 17 -11 31 -9 14 -24 37
-33 51 -16 26 -16 26 2 21 11 -4 65 -18 119 -33z m-3661 -5 c12 -6 38 -26 57
-44 19 -19 62 -44 94 -57 l59 -23 1 -65 1 -65 38 -9 c36 -9 37 -11 37 -56 0
-64 -26 -158 -57 -204 -23 -36 -24 -42 -13 -77 13 -38 9 -69 -9 -69 -12 0 -81
83 -81 99 0 6 5 20 12 30 10 16 6 26 -29 65 -80 91 -101 179 -65 274 11 28 19
52 17 52 -2 0 -12 -16 -24 -35 -11 -20 -29 -38 -38 -42 -10 -3 -26 -13 -35
-21 -17 -14 -18 -12 -19 29 l-1 44 -8 -50 c-4 -28 -10 -62 -14 -75 -6 -21 -2
-19 27 14 l35 39 3 -51 c3 -37 0 -52 -9 -52 -7 0 -18 -11 -24 -25 -6 -14 -16
-25 -22 -25 -6 0 -4 -5 4 -10 13 -9 12 -12 -4 -25 -17 -13 -18 -15 -3 -15 19
0 24 -20 5 -21 -7 0 -2 -5 12 -10 25 -10 25 -11 5 -26 -19 -15 -19 -15 8 -11
31 6 36 -6 10 -22 -15 -9 -13 -10 12 -5 29 6 29 6 11 -14 -24 -27 -12 -27 25
0 30 21 41 12 14 -11 -9 -7 -13 -15 -10 -18 3 -3 19 7 35 23 17 16 30 24 30
18 0 -6 -7 -16 -15 -23 -8 -7 -15 -18 -15 -24 0 -6 14 4 30 22 34 37 39 33 10
-8 -11 -16 -29 -32 -40 -35 -26 -8 -94 28 -119 64 -27 38 -37 108 -21 156 9
26 9 39 2 44 -7 4 -10 47 -8 113 1 59 0 106 -2 104 -2 -2 -7 -52 -11 -110 -10
-136 -31 -168 -31 -45 1 77 4 101 24 194 5 23 2 21 -10 -10 -11 -26 -18 -82
-21 -160 -5 -120 -16 -162 -29 -110 -11 44 3 236 21 287 28 80 91 116 148 87z
m611 -31 c46 -62 46 -132 -1 -188 -24 -30 -81 -66 -89 -57 -2 2 16 30 41 62
25 31 45 67 45 79 0 12 -4 16 -8 11 -4 -6 -24 -16 -44 -22 l-38 -11 0 63 c0
49 4 64 17 69 21 8 28 1 43 -47 7 -21 14 -36 17 -33 3 3 -2 23 -11 46 -28 69
-14 83 28 28z m-2844 -40 c-173 -148 -598 -441 -849 -587 -126 -73 -454 -241
-529 -271 -18 -7 -31 -14 -29 -16 8 -8 218 83 363 157 317 161 739 436 1022
666 30 23 58 43 62 43 8 0 80 -204 80 -227 0 -36 -973 -590 -1289 -734 -242
-110 -472 -174 -674 -186 -83 -5 -99 -4 -95 8 7 22 112 82 383 219 138 69 302
157 365 195 192 116 571 372 827 559 133 97 250 176 260 177 10 0 43 8 73 18
30 10 57 16 60 13 3 -2 -11 -17 -30 -34z m3370 20 c0 -2 9 -49 19 -106 10 -57
16 -112 14 -123 -5 -19 -7 -19 -34 7 -23 22 -29 37 -29 70 0 23 -3 55 -6 72
l-6 30 -50 -36 c-27 -20 -73 -52 -100 -70 l-50 -33 7 58 c4 32 10 59 13 61 4
2 39 18 77 37 39 18 87 34 108 34 20 1 37 0 37 -1z m-1535 -38 c8 -37 -29 -94
-124 -190 -123 -125 -227 -176 -359 -174 -46 1 -88 6 -93 11 -6 6 12 24 48 49
32 21 108 90 170 151 95 96 117 113 143 113 l32 0 -30 -37 c-46 -59 -132 -137
-184 -167 -67 -39 -60 -43 10 -6 75 40 146 98 198 163 27 33 64 64 100 83 75
40 81 40 89 4z m1906 -4 c50 -22 72 -39 99 -77 42 -59 125 -128 203 -169 69
-38 76 -33 10 6 -53 30 -139 108 -185 167 l-30 37 33 0 c27 0 47 -15 143 -113
61 -62 137 -130 169 -152 38 -25 54 -42 47 -49 -18 -18 -170 -13 -225 8 -110
42 -208 121 -301 241 -49 65 -55 78 -49 105 4 17 10 30 14 28 4 -2 36 -16 72
-32z m-1074 -18 c11 -13 23 -28 27 -35 8 -15 -51 -123 -67 -123 -7 0 -22 8
-35 18 -21 16 -23 25 -20 82 3 59 5 65 28 71 40 11 45 10 67 -13z m-2008 -20
c31 6 58 8 60 6 14 -14 -235 -254 -264 -254 -16 0 -65 151 -54 170 4 8 25 34
46 56 l39 42 58 -15 c45 -11 71 -12 115 -5z m2391 -5 c59 -20 70 -30 70 -64 0
-38 -17 -45 -45 -19 -21 20 -23 20 -22 3 3 -31 18 -34 133 -27 109 6 112 6
124 -16 7 -14 11 -52 8 -100 -1 -43 0 -73 4 -67 4 6 10 8 15 4 4 -4 2 -16 -3
-25 -6 -10 -9 -32 -6 -50 4 -27 -1 -39 -24 -63 l-29 -30 -6 28 c-3 15 -4 80
-2 144 l5 116 -67 -8 c-36 -5 -83 -13 -103 -19 -47 -13 -99 -13 -107 0 -3 6
-11 10 -16 10 -6 0 -7 -4 -4 -10 3 -6 -1 -7 -10 -4 -9 4 -27 23 -40 43 -14 19
-25 30 -25 24 0 -6 11 -25 25 -41 14 -17 25 -32 25 -35 0 -7 -70 -16 -85 -11
-7 3 -19 19 -25 35 -12 27 -10 32 23 68 22 25 38 55 42 78 11 64 11 64 57 57
24 -4 63 -13 88 -21z m-2276 11 c9 -3 16 -12 16 -18 0 -21 -129 -145 -199
-192 -89 -60 -65 -56 30 5 75 48 147 111 185 162 17 24 28 27 102 33 l84 7
-23 -33 c-43 -62 -194 -206 -265 -251 -64 -41 -173 -87 -207 -87 -11 0 -37 58
-37 83 0 3 35 35 79 72 43 36 109 102 147 146 37 43 68 79 70 79 1 0 9 -3 18
-6z m475 -3 c18 -12 -16 -56 -126 -162 -159 -155 -309 -222 -448 -201 l-49 7
74 46 c41 26 113 66 160 90 62 32 106 65 165 122 69 68 86 80 129 88 27 5 52
11 54 14 8 8 25 6 41 -4z m289 0 c10 -6 -10 -33 -78 -105 -101 -105 -207 -182
-297 -216 -65 -24 -176 -36 -211 -23 -22 9 -20 12 40 48 37 22 112 88 183 160
113 114 123 122 153 117 17 -2 32 -8 32 -12 0 -17 -153 -148 -215 -185 -36
-21 -65 -40 -65 -42 0 -2 37 15 83 39 58 30 107 67 169 126 47 46 99 87 115
92 37 11 75 12 91 1z m2501 -1 c20 -5 67 -42 120 -92 61 -59 110 -96 169 -126
45 -24 82 -41 82 -39 0 2 -29 21 -65 42 -62 37 -215 168 -215 185 0 4 15 10
32 12 30 5 40 -3 148 -112 63 -64 145 -136 183 -161 62 -40 66 -44 45 -52 -35
-13 -146 -1 -211 23 -90 34 -196 111 -297 216 -68 72 -88 99 -78 105 17 11 46
11 87 -1z m283 -6 c62 -15 74 -22 145 -93 53 -52 102 -89 153 -115 98 -50 230
-129 230 -138 0 -16 -99 -18 -165 -3 -106 24 -200 82 -316 192 -109 105 -144
147 -134 163 8 13 8 13 87 -6z m485 -66 c38 -42 95 -100 128 -129 33 -29 59
-56 58 -61 -2 -4 0 -7 5 -6 9 3 111 -46 137 -66 34 -26 1 -37 -100 -34 -80 3
-100 8 -165 39 -41 20 -103 57 -137 83 -62 47 -205 193 -225 230 -10 18 -7 19
37 13 26 -4 64 -7 85 -7 32 0 41 -6 68 -44 18 -24 60 -66 95 -93 60 -48 157
-107 163 -100 2 2 -25 22 -61 45 -68 45 -195 167 -195 188 0 12 18 24 32 21 4
-1 38 -37 75 -79z m-1025 -102 l99 -99 -52 6 c-50 6 -175 59 -210 88 -15 13
-15 20 4 88 l21 73 19 -28 c11 -16 65 -74 119 -128z m-1909 63 l15 -57 -62
-36 c-68 -41 -153 -69 -191 -64 -23 3 -22 5 23 43 26 21 78 74 117 117 46 52
71 74 76 66 4 -7 14 -38 22 -69z m57 -189 c18 -52 51 -135 72 -185 22 -49 46
-105 54 -122 47 -108 -70 79 -130 207 -60 129 -73 175 -56 195 18 21 21 15 60
-95z m1690 100 c18 -10 18 -11 0 -65 -28 -82 -95 -221 -146 -302 -68 -109 -67
-100 1 52 37 82 115 293 115 310 0 18 5 18 30 5z m1882 -93 c159 -100 329
-198 661 -381 305 -168 489 -260 627 -315 121 -48 185 -82 182 -96 -5 -27
-195 -12 -390 31 -313 69 -725 259 -1283 591 -103 61 -127 79 -125 97 1 20 5
21 73 17 73 -3 73 -3 73 23 l0 26 68 -44 c185 -120 513 -294 735 -390 127 -55
318 -128 323 -123 2 1 -56 27 -129 57 -344 140 -1017 512 -1017 562 0 4 8 16
18 26 20 23 12 26 184 -81z m-5354 51 c5 -18 6 -37 2 -41 -4 -4 -90 -58 -191
-118 -210 -126 -592 -320 -786 -399 -73 -30 -131 -56 -129 -58 2 -2 71 22 153
53 194 74 584 267 796 395 93 56 170 100 171 98 14 -17 48 -119 43 -130 -10
-28 -361 -225 -662 -373 -311 -152 -560 -236 -808 -270 -122 -17 -216 -17
-220 0 -3 13 62 48 173 92 240 95 983 497 1325 717 55 35 105 65 112 65 7 1
16 -14 21 -31z m1721 -72 c18 -47 73 -158 121 -248 109 -204 137 -276 124
-326 -6 -26 -18 -41 -38 -51 -26 -12 -34 -11 -73 8 -25 12 -90 65 -145 119
-108 105 -213 250 -295 408 l-44 88 23 12 c13 7 40 13 61 14 34 0 39 -4 49
-31 45 -128 177 -352 263 -444 50 -53 49 -52 -47 85 -74 105 -127 198 -169
292 -21 49 -39 91 -39 92 0 2 30 13 68 25 37 11 74 25 82 31 8 5 18 10 21 10
3 0 20 -38 38 -84z m1886 46 c39 -13 71 -25 73 -27 1 -1 -14 -40 -33 -85 -48
-113 -86 -176 -243 -400 -21 -30 -18 -28 18 10 70 74 139 178 199 300 32 64
63 130 69 148 10 29 15 32 49 32 21 -1 48 -7 61 -14 l23 -12 -44 -88 c-81
-157 -187 -303 -294 -407 -107 -104 -170 -144 -209 -135 -26 7 -54 52 -54 86
0 35 46 141 135 307 46 86 98 194 116 240 26 66 36 82 48 77 9 -4 48 -18 86
-32z m-2472 -69 c21 -4 37 -22 69 -77 91 -158 188 -273 298 -356 33 -24 20 -8
-46 61 -104 107 -153 172 -218 281 l-45 77 57 7 c31 4 67 10 79 15 20 7 26 -1
73 -89 83 -155 175 -287 276 -392 52 -53 94 -103 94 -109 0 -18 -45 -31 -87
-24 -174 27 -422 245 -579 508 -56 94 -61 122 -20 111 11 -4 34 -9 49 -13z
m2809 -7 l57 -7 -45 -77 c-64 -107 -114 -173 -213 -277 -47 -49 -77 -83 -66
-75 113 82 213 196 299 343 52 89 56 93 102 105 85 23 81 3 -34 -173 -89 -134
-259 -305 -365 -368 -96 -56 -196 -85 -232 -69 -14 6 -25 17 -25 23 0 6 42 56
94 109 101 105 193 237 276 392 47 88 53 96 73 89 12 -5 48 -11 79 -15z
m-2882 -53 c108 -192 255 -360 408 -467 45 -32 82 -62 82 -67 0 -5 -11 -16
-25 -25 -42 -27 -118 -15 -221 36 -201 100 -380 277 -500 495 l-38 68 49 -6
c26 -4 54 -7 61 -7 8 0 26 -24 40 -52 49 -97 126 -202 209 -284 45 -45 92 -87
106 -94 13 -7 -15 28 -63 76 -112 115 -248 308 -248 352 0 7 59 26 97 31 6 0
26 -25 43 -56z m3178 40 c17 -3 32 -10 32 -15 0 -45 -135 -236 -253 -357 -55
-56 -78 -85 -57 -71 96 65 247 245 313 376 26 51 27 52 82 59 31 3 59 5 61 2
7 -6 -93 -166 -152 -244 -177 -231 -495 -417 -599 -349 -14 9 -25 20 -25 25 0
5 37 35 83 67 152 107 299 275 407 467 28 49 36 58 54 52 12 -3 36 -8 54 -12z
m-3478 -32 c0 -11 -48 -45 -137 -97 -221 -130 -203 -121 -213 -104 -5 8 -10
21 -10 27 0 16 193 146 273 184 63 29 87 27 87 -10z m3850 -44 c396 -249 661
-389 972 -513 78 -31 156 -64 173 -72 29 -14 29 -15 8 -23 -12 -4 -93 -4 -180
1 -165 9 -369 46 -428 79 -16 9 -48 18 -69 21 -37 5 -44 11 -90 80 -38 56 -67
86 -114 118 -35 23 -68 42 -73 42 -13 0 -11 -38 6 -92 8 -30 10 -48 4 -48 -14
0 -152 59 -162 69 -5 5 12 34 37 65 25 30 46 58 46 61 0 20 -147 -7 -207 -38
-31 -16 -32 -16 -127 34 -53 28 -96 55 -96 59 0 13 94 159 102 159 4 1 83 -42
175 -96 213 -122 532 -278 692 -337 68 -26 125 -45 127 -43 2 2 -33 19 -79 37
-241 99 -516 237 -769 388 -125 74 -144 92 -117 119 17 17 60 -1 169 -70z
m-4037 45 c27 -7 23 -11 -75 -74 l-103 -68 -18 40 c-9 21 -20 52 -23 67 -5 27
-3 30 42 44 47 14 84 12 177 -9z m4278 -20 c41 -21 133 -71 204 -112 166 -94
437 -225 585 -283 210 -82 221 -77 20 8 -216 91 -714 349 -764 396 -6 5 12 9
43 9 49 0 64 -7 209 -94 460 -275 865 -471 1152 -556 155 -45 151 -53 -25 -47
-221 6 -418 53 -700 164 -145 57 -418 189 -597 289 -130 72 -389 236 -384 242
6 5 102 19 147 21 25 1 61 -12 110 -37z m-4024 -90 c23 -38 45 -76 49 -85 5
-14 -29 -34 -189 -113 -108 -53 -200 -94 -205 -90 -13 8 -56 160 -46 163 5 2
81 46 169 98 88 51 165 94 170 94 6 0 29 -30 52 -67z m1697 16 c3 -13 7 -61
11 -108 3 -47 10 -89 14 -93 13 -13 60 73 69 124 7 39 9 41 16 20 5 -13 5 -58
1 -99 -6 -66 -11 -79 -35 -102 -26 -24 -27 -28 -13 -42 21 -21 8 -56 -23 -64
-28 -7 -44 5 -107 79 l-40 48 22 43 c11 24 24 72 27 107 8 79 19 109 39 109 8
0 17 -10 19 -22z m-2444 3 c0 -5 3 -16 6 -24 3 -10 -9 -23 -38 -40 -83 -48
-404 -205 -530 -258 -70 -29 -125 -55 -124 -57 9 -8 334 129 506 213 106 53
196 92 200 88 4 -4 15 -30 25 -56 15 -41 15 -51 4 -62 -25 -24 -372 -192 -514
-248 -275 -110 -526 -167 -733 -167 -75 0 -113 3 -106 10 5 5 57 23 114 40
160 48 343 123 549 225 172 87 552 294 603 330 25 17 38 19 38 6z m2716 -131
c22 0 24 -3 18 -22 -4 -13 -8 -33 -10 -44 -1 -12 -8 -32 -15 -45 -7 -13 -13
-35 -14 -49 -2 -14 -6 -34 -11 -45 -7 -18 -6 -18 9 -7 9 8 20 11 26 8 5 -4 11
4 13 16 2 17 15 26 58 39 88 27 123 33 116 20 -4 -6 -3 -11 3 -11 6 0 8 -7 5
-15 -4 -8 -1 -15 6 -15 6 0 8 -5 4 -11 -5 -8 -9 -8 -14 1 -6 10 -15 10 -40 1
-41 -14 -40 -14 -40 5 0 11 -12 5 -42 -20 -54 -47 -112 -66 -134 -44 -14 14
-14 19 -1 44 8 16 17 46 21 67 4 20 12 37 18 37 6 0 3 9 -7 20 -18 19 -17 20
6 20 24 1 24 1 -3 16 -30 16 -40 51 -12 40 9 -3 27 -6 40 -6z m-1846 -57 c55
-68 151 -151 245 -212 77 -50 216 -111 255 -111 25 0 24 -1 -9 -27 -40 -31
-71 -94 -71 -143 0 -42 25 -100 78 -177 102 -151 121 -189 136 -280 29 -175
30 -193 9 -193 -10 0 -117 16 -237 35 -121 19 -221 35 -223 35 -6 0 -159 196
-181 232 -22 36 -23 36 -111 43 l-89 7 86 59 c145 98 143 95 130 154 -6 28
-12 52 -14 54 -2 2 -46 -24 -98 -58 -119 -77 -178 -104 -188 -88 -20 32 -181
521 -172 524 5 2 97 48 204 102 107 55 197 99 200 100 3 0 25 -25 50 -56z
m3431 10 c49 -26 89 -51 89 -55 0 -4 -14 -16 -30 -28 l-30 -22 -19 24 c-17 20
-23 22 -50 12 -22 -9 -31 -9 -34 0 -10 30 -92 -83 -138 -194 -27 -63 -29 -65
-62 -62 -21 2 -38 -2 -47 -12 -7 -9 -18 -16 -25 -16 -24 0 -40 -72 -40 -177
l0 -102 -34 -3 c-19 -2 -37 -10 -41 -18 -34 -70 -35 -65 3 -132 20 -35 47 -78
61 -97 l26 -34 -33 -20 c-17 -11 -34 -21 -36 -23 -3 -2 8 -17 23 -33 l27 -28
-28 -12 c-51 -22 -67 -39 -54 -55 10 -11 9 -15 -6 -20 -32 -10 -314 -48 -319
-43 -3 2 4 65 15 140 21 145 28 160 143 330 53 77 78 135 78 177 0 49 -31 112
-71 143 -33 26 -34 27 -9 27 39 0 178 61 255 111 88 57 209 163 255 223 19 25
37 45 39 46 2 0 44 -21 92 -47z m310 -20 c-6 -10 -34 -47 -63 -82 -50 -60 -58
-65 -135 -90 l-83 -27 26 28 c15 15 60 51 100 80 41 29 74 56 74 61 0 10 -9 5
-90 -52 -36 -25 -93 -72 -127 -105 -35 -32 -63 -54 -63 -47 0 26 30 68 87 122
78 75 180 127 251 128 28 1 31 -1 23 -16z m-4531 -42 c0 -19 -120 -80 -297
-151 -46 -19 -81 -35 -79 -37 4 -5 232 82 320 121 32 14 62 26 65 26 6 0 51
-126 51 -142 0 -10 -217 -76 -335 -103 -125 -29 -415 -52 -455 -37 l-25 9 30
15 c17 9 100 43 185 77 85 34 238 103 340 154 102 52 188 92 193 90 4 -2 7
-12 7 -22z m1876 -130 c25 -40 43 -79 40 -86 -7 -19 -120 -52 -201 -60 -45 -4
-114 0 -196 11 -115 16 -126 19 -121 37 3 13 10 17 26 13 113 -33 132 -36 162
-26 18 6 35 18 38 26 5 14 11 13 40 -5 45 -28 109 -28 135 0 30 33 34 78 12
150 -20 64 -20 64 0 39 10 -14 40 -58 65 -99z m1182 57 c-23 -74 -18 -115 17
-148 32 -30 81 -30 130 0 30 19 36 19 41 6 3 -8 20 -20 38 -26 30 -10 49 -7
162 26 16 4 23 0 26 -13 5 -18 -6 -21 -121 -37 -82 -11 -151 -15 -196 -11 -83
8 -194 41 -202 61 -4 11 111 204 122 204 2 0 -6 -28 -17 -62z m1673 20 c65
-54 103 -107 129 -180 20 -58 28 -172 12 -182 -5 -3 -14 23 -20 57 -12 63 -95
247 -112 247 -14 0 -13 -3 24 -72 34 -62 77 -175 75 -200 0 -7 -9 10 -20 39
-11 29 -41 75 -66 103 -37 41 -50 67 -69 133 -13 45 -24 85 -24 90 0 16 22 5
71 -35z m-585 -14 c12 -64 -2 -175 -30 -244 -22 -54 -111 -200 -122 -200 -4 0
65 196 110 314 15 38 25 74 22 80 -5 14 -32 -49 -91 -214 -27 -74 -52 -139
-57 -144 -4 -6 -8 10 -8 35 0 52 30 174 60 245 24 55 91 164 102 164 4 0 10
-16 14 -36z m500 -75 c43 -22 44 -42 0 -34 -28 6 -36 4 -36 -8 0 -14 41 -163
55 -199 5 -13 2 -18 -10 -18 -16 0 -17 -8 -10 -77 4 -43 16 -112 27 -153 11
-41 21 -80 21 -86 1 -6 -18 -32 -41 -58 -41 -45 -45 -47 -62 -31 -24 22 -84
35 -118 26 -19 -5 -37 -2 -59 12 -23 13 -48 18 -85 16 -29 -1 -66 3 -81 9 -16
7 -43 12 -62 12 -28 0 -35 5 -44 30 -5 17 -20 44 -31 60 l-21 30 40 47 c46 56
91 146 91 186 0 24 8 31 85 67 113 52 140 72 175 133 40 70 39 81 -5 74 -36
-6 -37 -2 -13 30 9 11 58 -7 184 -68z m-175 -18 c-35 -67 -99 -109 -251 -166
-41 -15 -81 -32 -88 -38 -7 -5 -15 -8 -17 -5 -11 11 59 61 173 123 68 37 121
69 119 72 -3 2 -59 -23 -126 -56 -66 -34 -123 -61 -126 -61 -3 0 -5 6 -5 13 0
18 67 81 110 103 35 18 166 52 208 53 l22 1 -19 -39z m-1973 -31 c15 -26 23
-30 59 -30 81 0 93 -69 37 -199 -15 -34 -28 -60 -30 -58 -2 1 3 25 11 52 16
51 20 155 7 155 -4 0 -26 -18 -47 -41 -22 -22 -58 -55 -80 -72 l-40 -32 31 40
c43 55 54 79 54 114 0 27 -3 31 -29 31 -16 0 -47 -7 -70 -15 l-42 -15 43 50
c24 27 51 49 61 50 10 0 26 -13 35 -30z m2181 -20 c78 -39 133 -132 146 -245
4 -43 4 -46 -6 -25 -75 163 -102 210 -115 197 -3 -3 3 -19 15 -36 35 -48 79
-152 86 -201 l6 -45 -25 49 c-13 27 -41 65 -61 86 -27 28 -43 60 -66 129 -40
125 -40 122 20 91z m-2713 -57 c9 -16 55 -78 101 -140 46 -61 83 -117 83 -124
0 -26 -33 -49 -70 -49 -47 0 -110 40 -178 115 -29 31 -56 55 -59 51 -7 -6 11
-29 86 -108 l45 -48 -20 -27 c-26 -35 -87 -42 -136 -17 -18 9 -75 60 -125 112
-107 111 -124 111 -28 1 65 -75 79 -111 53 -137 -47 -47 -173 38 -264 179 -25
39 -47 69 -50 66 -3 -3 8 -32 25 -65 52 -103 51 -210 -2 -275 l-23 -29 -66 99
c-88 132 -108 174 -108 223 0 73 52 138 128 161 36 10 65 9 180 -6 151 -19
235 -13 329 24 66 26 78 25 99 -6z m1049 1 c95 -31 225 -37 350 -15 105 18
165 9 211 -31 45 -40 64 -77 64 -128 0 -49 -20 -91 -108 -223 l-66 -99 -23 29
c-53 65 -54 172 -2 275 17 33 28 63 25 66 -7 7 -5 10 -50 -66 -82 -137 -216
-228 -264 -180 -26 26 -12 62 53 137 96 110 79 109 -27 -1 -51 -53 -108 -103
-126 -112 -50 -25 -110 -18 -136 17 l-20 27 45 48 c75 79 93 102 86 108 -3 4
-30 -20 -59 -51 -100 -110 -188 -143 -237 -91 l-22 23 96 128 c52 70 100 136
106 146 12 24 8 24 104 -7z m1982 -101 c-5 -68 -40 -191 -70 -248 -8 -17 -29
-43 -45 -58 -30 -28 -29 -27 25 113 30 78 53 149 51 158 -2 9 -17 -17 -32 -58
-16 -41 -42 -108 -59 -149 -27 -68 -31 -72 -39 -50 -13 35 0 109 31 176 25 53
123 183 138 183 3 0 3 -30 0 -67z m-1081 -26 c42 -88 96 -296 92 -352 -3 -38
-5 -35 -31 50 -60 192 -80 250 -84 238 -2 -6 12 -66 32 -133 20 -67 35 -124
33 -126 -2 -2 -18 7 -36 19 -42 29 -63 90 -69 202 -5 80 8 175 23 175 3 0 21
-33 40 -73z m259 -65 c-17 -38 -47 -76 -87 -114 -34 -32 -65 -58 -70 -58 -20
0 -2 32 67 115 68 81 91 116 66 101 -5 -3 -40 -43 -78 -87 -43 -52 -69 -76
-71 -66 -8 41 73 148 143 188 l50 29 3 -25 c2 -14 -8 -51 -23 -83z m535 12
c56 -48 101 -167 99 -267 0 -38 -3 -33 -24 45 -27 98 -55 168 -61 153 -2 -6 7
-44 21 -85 14 -41 28 -99 32 -130 6 -58 -5 -64 -16 -8 -5 24 -13 34 -29 36
-24 4 -43 56 -62 172 -18 119 -14 129 40 84z m-3920 -87 c0 -41 -10 -51 -127
-117 -192 -108 -467 -190 -638 -190 -45 0 -52 3 -66 29 l-17 29 77 6 c249 22
519 113 691 235 69 49 80 50 80 8z m822 -117 c17 0 4 -496 -16 -609 -17 -99
-51 -182 -91 -225 -30 -32 -50 -34 -41 -3 25 89 15 364 -23 597 l-18 113 30
49 c17 26 32 46 34 44 18 -17 32 -190 34 -391 1 -173 4 -219 11 -185 5 25 7
142 4 260 -3 173 -8 231 -25 298 -12 46 -21 99 -21 119 l0 35 56 -51 c30 -28
60 -51 66 -51z m587 4 c-47 -69 -67 -127 -94 -272 -14 -75 -30 -155 -35 -177
-5 -22 -7 -41 -5 -43 6 -7 33 95 59 224 14 66 33 140 42 165 19 47 58 114 72
123 5 3 25 -15 46 -40 36 -43 37 -47 31 -97 -25 -196 -91 -356 -187 -450 -35
-34 -78 -70 -97 -81 l-34 -19 7 134 c18 352 47 475 139 592 l30 38 28 -27 28
-27 -30 -43z m587 -39 c18 -38 40 -104 48 -145 13 -65 36 -346 36 -448 l0 -33
-32 18 c-18 10 -61 45 -94 78 -94 93 -147 213 -179 404 l-17 100 38 45 c34 41
39 44 54 31 38 -34 78 -142 109 -294 18 -84 38 -167 46 -185 8 -17 13 -22 10
-11 -2 11 -18 91 -35 178 -34 177 -53 233 -98 299 l-31 45 27 27 27 27 29 -33
c15 -18 43 -64 62 -103z m580 9 c-25 -97 -36 -220 -35 -384 1 -277 15 -264 21
20 4 181 10 280 20 314 l14 48 31 -49 30 -50 -18 -109 c-37 -217 -48 -512 -23
-601 9 -31 -11 -29 -41 3 -79 85 -106 223 -112 574 l-5 255 29 17 c15 9 44 33
63 53 l35 36 3 -34 c2 -19 -4 -61 -12 -93z m-1303 79 c20 -3 37 -7 37 -8 0 -1
-15 -36 -34 -76 -36 -77 -60 -187 -72 -324 -6 -74 -9 -83 -40 -111 -45 -44
-155 -114 -176 -114 -15 0 -13 7 12 49 77 125 136 293 160 459 17 118 28 145
54 137 11 -3 38 -9 59 -12z m835 -20 c6 -21 23 -98 37 -171 29 -150 64 -251
129 -364 35 -62 41 -78 27 -78 -18 0 -104 54 -167 106 -42 33 -42 33 -49 121
-11 138 -34 242 -71 322 -19 41 -34 75 -34 77 0 2 12 4 28 5 15 0 36 4 47 9
34 15 41 11 53 -27z m2172 17 c0 -31 -52 -104 -124 -175 -74 -72 -166 -138
-166 -119 0 4 50 58 112 121 62 62 108 113 103 113 -4 0 -64 -55 -132 -122
-67 -67 -123 -119 -123 -116 0 4 9 26 19 50 24 53 123 151 216 212 71 45 95
55 95 36z m-3169 -48 c45 4 44 10 24 -108 -20 -115 -48 -208 -90 -300 -60
-132 -177 -294 -213 -294 -16 0 -15 39 8 220 5 41 9 152 10 245 0 199 3 215
37 215 13 0 35 7 48 16 20 13 25 13 25 3 -1 -69 -24 -317 -35 -378 -18 -93
-18 -110 0 -51 22 68 44 222 51 351 l7 117 45 -20 c27 -12 59 -18 83 -16z
m1208 -126 c1 -80 28 -257 47 -303 8 -21 12 -27 9 -13 -12 60 -34 253 -40 348
l-6 103 30 -15 c17 -9 41 -16 56 -16 l25 0 0 -182 c0 -101 5 -223 10 -273 24
-220 24 -225 7 -225 -39 0 -172 193 -228 331 -33 80 -73 235 -84 321 l-7 53
44 -3 c26 -1 59 5 83 16 l40 19 7 -51 c3 -28 6 -77 7 -110z m1006 93 c18 -34
32 -228 16 -213 -7 6 -20 50 -30 97 -9 48 -20 89 -24 93 -22 23 11 -153 40
-209 19 -38 7 -48 -18 -17 -43 52 -62 111 -61 185 0 38 5 83 12 99 10 28 11
28 31 10 12 -10 27 -30 34 -45z m-228 -14 c22 -14 58 -44 80 -69 38 -43 117
-175 109 -183 -2 -2 -36 31 -75 74 -69 77 -161 161 -161 148 0 -4 43 -51 95
-105 52 -54 95 -100 95 -103 0 -11 -70 12 -99 32 -63 45 -171 193 -171 235 0
19 71 3 127 -29z m857 -41 c17 -45 -5 -131 -50 -190 -30 -38 -82 -79 -91 -71
-3 4 15 39 41 78 43 68 53 89 41 89 -2 0 -20 -24 -40 -52 l-35 -53 0 42 c0 42
13 64 84 141 34 36 41 39 50 16z m-2317 -284 l8 -215 9 215 8 215 36 38 c41
43 46 39 57 -43 22 -163 95 -329 188 -424 66 -68 67 -66 -41 -98 -55 -17 -77
-29 -90 -49 -30 -47 -155 -189 -166 -189 -12 0 -86 81 -146 160 -44 57 -42 55
-120 80 -98 30 -102 35 -57 72 102 83 183 252 212 443 15 96 11 93 55 49 l39
-39 8 -215z m-1729 254 c61 -5 63 -7 94 -52 17 -26 62 -86 100 -133 67 -83 71
-87 118 -93 77 -10 73 -25 -20 -79 -61 -36 -43 -34 27 3 43 23 59 27 69 19 19
-15 18 -29 -3 -44 -16 -12 -15 -13 9 -8 21 4 29 -1 43 -25 17 -29 18 -29 36
-11 25 25 44 24 65 -3 15 -22 15 -16 -1 25 -3 6 9 20 27 30 31 18 33 18 46 0
7 -10 11 -26 8 -36 -2 -9 0 -15 5 -12 5 4 18 -9 29 -27 23 -38 27 -30 6 11
-15 27 -14 28 19 44 33 16 35 16 46 -5 10 -18 8 -24 -12 -40 l-24 -19 24 12
c37 18 51 -9 51 -98 0 -69 -1 -73 -22 -73 -43 0 -314 68 -456 115 -134 44
-146 46 -193 36 -99 -22 -91 -30 -143 147 -51 174 -53 182 -31 182 11 0 15
-11 15 -40 0 -83 62 -153 146 -167 48 -8 38 12 -10 21 -72 14 -116 73 -116
156 l0 50 -39 0 c-21 0 -52 -3 -69 -6 -31 -6 -31 -7 -17 -35 34 -64 -1 -183
-59 -202 -50 -17 -54 -1 -47 171 6 154 6 154 35 179 31 26 26 26 244 7z m3555
1 c14 -10 22 -36 29 -94 14 -109 4 -177 -40 -264 l-37 -72 -51 -3 c-77 -4 -83
9 -45 106 34 89 51 178 51 268 0 33 3 64 7 67 11 12 67 7 86 -8z m153 -20 c18
-12 23 -27 29 -91 19 -194 -33 -344 -118 -344 -18 0 -42 6 -53 14 -19 14 -18
16 10 97 27 76 29 93 28 208 -1 89 2 128 11 133 15 11 65 2 93 -17z m136 -16
c28 -7 40 -17 44 -35 13 -51 -22 -316 -48 -372 -11 -22 -21 -28 -56 -30 -53
-4 -60 10 -42 86 8 32 15 122 15 201 2 170 5 173 87 150z m-4138 -71 c5 -14 6
-37 3 -50 -9 -34 -84 -70 -159 -76 -53 -4 -58 -3 -69 21 -22 48 28 90 144 122
63 17 70 15 81 -17z m4556 -73 c-99 -100 -153 -126 -296 -142 -64 -7 -78 10
-21 27 57 17 281 130 273 137 -3 4 -64 -21 -134 -55 -129 -62 -182 -81 -182
-65 0 7 124 94 168 118 48 26 125 44 187 45 l69 0 -64 -65z m-872 -26 c60 -21
33 -29 -97 -29 -79 0 -132 -4 -136 -10 -5 -7 14 -9 58 -4 36 4 95 3 131 -1 70
-7 81 -19 49 -50 -27 -27 -202 -17 -267 15 -28 14 -52 30 -53 36 -3 10 62 44
112 57 30 9 166 -1 203 -14z m-3688 -53 c0 -7 -3 -33 -6 -58 -6 -43 -9 -46
-53 -61 -106 -37 -151 -29 -151 27 0 30 26 53 97 82 65 27 113 31 113 10z
m3465 -62 c28 -8 86 -15 133 -15 81 0 83 0 76 -22 -4 -12 -10 -37 -13 -55 -6
-33 -8 -34 -126 -73 -138 -45 -404 -116 -476 -125 l-49 -7 0 75 c0 90 14 117
51 99 l24 -12 -24 19 c-20 16 -22 22 -12 40 11 21 13 21 46 5 33 -16 34 -17
19 -44 -21 -41 -17 -49 6 -11 12 20 25 30 32 26 7 -5 8 -3 3 5 -4 7 -2 23 5
36 12 23 13 23 47 7 20 -10 31 -21 28 -29 -16 -41 -17 -47 -1 -25 21 27 40 28
65 3 19 -19 19 -18 37 15 21 39 18 37 47 23 21 -9 21 -9 4 5 -13 10 -17 21
-12 36 8 24 27 21 92 -16 64 -37 64 -28 0 12 -77 48 -77 51 -2 28z m-929 -253
c-5 -163 -26 -291 -46 -291 -4 0 -10 39 -13 88 -4 48 -10 115 -13 150 -6 55
-5 62 11 62 16 0 17 9 11 113 l-7 112 32 -30 31 -30 -6 -174z m1724 162 c43
-48 78 -109 69 -118 -6 -6 -123 12 -166 26 -34 11 -34 12 3 68 2 1 19 -9 38
-24 45 -35 47 -18 3 22 -28 25 -33 36 -29 62 3 26 7 29 22 21 10 -5 37 -31 60
-57z m-2676 -48 c-6 -94 -5 -105 10 -105 19 0 19 6 5 -150 -13 -154 -17 -166
-35 -117 -20 57 -34 186 -34 316 0 104 2 117 22 138 12 13 25 23 30 23 5 0 6
-47 2 -105z m-1416 72 c5 -28 -21 -51 -99 -87 -115 -53 -179 -51 -179 5 0 12
8 29 18 37 17 16 76 48 87 48 3 0 5 -22 5 -50 0 -27 4 -50 10 -50 5 0 19 18
30 40 31 61 56 82 93 78 21 -2 33 -9 35 -21z m1362 -392 c6 -27 19 -68 30 -90
10 -22 26 -70 34 -108 18 -76 41 -125 84 -180 20 -25 33 -57 41 -99 6 -34 9
-64 6 -66 -8 -8 -86 51 -121 92 -19 22 -48 76 -65 120 -17 44 -42 94 -55 110
-66 78 -109 234 -116 428 l-2 77 59 31 c33 17 65 36 70 41 7 7 12 -43 17 -148
4 -87 13 -180 18 -208z m1148 298 l35 -14 -7 -102 c-12 -194 -49 -320 -116
-407 -15 -19 -33 -53 -40 -75 -21 -68 -59 -134 -100 -175 -37 -37 -98 -76
-106 -68 -2 3 1 32 7 66 8 43 20 73 41 99 36 45 74 125 84 179 4 22 20 71 35
111 32 80 49 199 49 356 l0 97 42 -26 c23 -15 57 -33 76 -41z m-943 -90 c38
-15 71 -28 73 -29 1 0 -5 -46 -14 -100 -21 -125 -24 -369 -6 -441 8 -29 31
-81 51 -115 25 -41 41 -81 45 -117 4 -29 16 -76 26 -104 11 -28 18 -53 15 -55
-7 -8 -92 68 -118 106 -35 50 -55 99 -71 176 -9 45 -25 80 -51 116 -60 81 -75
134 -75 258 0 96 13 250 26 310 6 28 13 28 99 -5z m700 5 c13 -59 25 -203 25
-305 0 -130 -13 -176 -78 -269 -25 -37 -43 -76 -47 -104 -10 -61 -38 -134 -71
-181 -27 -40 -112 -115 -120 -107 -2 3 3 22 12 43 8 21 22 71 30 112 9 48 23
86 40 108 51 67 67 143 67 315 0 98 -6 191 -17 254 -9 54 -15 100 -14 101 2 1
26 10 53 19 28 9 57 21 65 26 26 17 49 11 55 -12z m-571 -77 l27 -39 -34 -139
c-20 -76 -39 -172 -43 -213 l-8 -75 -7 50 c-14 100 14 455 35 455 2 0 15 -18
30 -39z m387 -8 c14 -58 28 -330 20 -398 l-7 -60 -7 70 c-9 78 -26 163 -58
277 l-22 78 28 40 c15 22 30 38 32 36 3 -2 9 -22 14 -43z m-1821 -125 c0 -104
-49 -158 -143 -158 -52 0 -100 29 -134 79 -28 42 -29 47 -1 55 17 4 31 -3 56
-29 74 -76 163 -41 165 64 1 38 11 51 40 51 14 0 17 -10 17 -62z m1537 10 l52
-53 8 -255 9 -255 8 257 8 256 54 53 c29 29 56 51 58 48 11 -11 57 -207 72
-310 20 -137 15 -179 -25 -229 -22 -28 -33 -56 -41 -104 -6 -37 -19 -90 -30
-120 -21 -56 -83 -136 -105 -136 -22 0 -84 80 -105 136 -11 30 -24 84 -30 121
-7 39 -19 77 -29 88 -43 46 -54 85 -46 159 14 144 68 396 84 396 4 0 30 -24
58 -52z"/>
<path d="M12208 8206 c-96 -26 -169 -97 -205 -199 -16 -47 -18 -95 -18 -522 0
-465 0 -471 23 -526 50 -125 142 -187 286 -196 178 -12 302 61 345 202 20 64
21 90 21 524 0 498 -2 519 -58 603 -69 105 -242 155 -394 114z m185 -208 c44
-23 47 -53 47 -510 0 -392 -2 -436 -18 -468 -35 -70 -151 -75 -192 -7 -19 30
-20 53 -20 477 0 424 1 446 20 477 29 49 103 63 163 31z"/>
<path d="M11342 8202 l-172 -2 2 -713 3 -712 225 1 c207 1 230 2 281 23 144
56 197 176 186 420 -7 168 -39 239 -135 303 l-23 15 36 27 c19 15 47 51 62 79
25 47 28 64 31 184 5 169 -9 223 -76 293 -74 76 -129 87 -420 82z m227 -218
c36 -26 51 -74 51 -169 0 -147 -29 -185 -145 -193 l-75 -5 0 192 0 191 73 0
c51 0 79 -5 96 -16z m18 -590 c47 -35 53 -58 53 -202 0 -195 -13 -212 -161
-212 l-79 0 0 221 0 221 79 -3 c61 -3 86 -9 108 -25z"/>
<path d="M12817 8203 c-4 -3 -7 -327 -7 -720 l0 -713 305 0 305 0 0 105 0 105
-190 0 -190 0 0 210 0 210 150 0 150 0 0 100 0 100 -150 0 -150 0 0 200 0 200
190 0 190 0 0 105 0 105 -298 0 c-164 0 -302 -3 -305 -7z"/>
<path d="M13567 8204 c-4 -4 -7 -328 -7 -721 l0 -714 113 3 112 3 3 308 2 307
125 0 125 0 0 -310 0 -311 113 3 112 3 0 715 0 715 -112 3 -113 3 0 -311 0
-310 -125 0 -125 0 -2 308 -3 307 -106 3 c-58 1 -108 -1 -112 -4z"/>
<path d="M14435 8198 c-3 -7 -4 -330 -3 -718 l3 -705 110 0 110 0 3 308 2 307
125 0 125 0 0 -310 0 -311 113 3 112 3 0 715 0 715 -110 0 -110 0 -3 -307 -2
-308 -125 0 -125 0 -2 308 -3 307 -108 3 c-80 2 -109 -1 -112 -10z"/>
<path d="M15476 8202 c-6 -11 -226 -1382 -226 -1411 0 -20 6 -21 100 -21 l99
0 6 33 c3 17 10 64 15 102 6 39 13 82 16 98 l6 27 137 0 138 0 17 -122 c10
-67 20 -126 22 -130 3 -4 55 -8 116 -8 l110 0 -6 33 c-3 17 -53 331 -111 697
-58 366 -108 675 -110 688 -5 22 -8 22 -165 22 -87 0 -161 -4 -164 -8z m204
-611 c27 -183 50 -339 50 -347 0 -11 -20 -14 -105 -14 -58 0 -105 2 -105 5 0
2 23 155 50 340 28 185 50 341 50 347 0 47 17 -44 60 -331z"/>
<path d="M16378 8200 c-87 -11 -164 -53 -199 -109 -45 -70 -53 -112 -53 -271
0 -179 14 -231 84 -300 l46 -47 -38 -32 c-79 -66 -89 -108 -98 -391 -4 -129
-11 -245 -15 -257 -7 -23 -7 -23 103 -23 105 0 112 1 123 22 8 15 14 105 18
255 6 214 8 234 27 260 26 34 72 52 142 52 l52 1 0 -295 0 -295 110 0 110 0 0
720 0 720 -177 -1 c-98 -1 -204 -5 -235 -9z m192 -421 l0 -222 -72 5 c-130 8
-148 36 -148 223 0 189 16 213 148 214 l72 1 0 -221z"/>
<path d="M17275 8198 c-3 -7 -4 -330 -3 -718 l3 -705 110 0 110 0 5 225 5 225
32 60 c27 51 32 57 39 40 4 -11 53 -139 109 -285 l101 -265 112 -3 c84 -2 112
0 112 10 0 7 -67 184 -150 393 -82 209 -150 386 -150 391 0 6 68 149 150 317
83 169 150 311 150 317 0 6 -41 10 -105 10 -98 0 -105 -1 -119 -22 -7 -13 -74
-151 -147 -308 l-134 -285 -5 305 -5 305 -108 3 c-80 2 -109 -1 -112 -10z"/>
<path d="M18285 8198 c-5 -16 -225 -1398 -225 -1415 0 -10 27 -13 100 -13 95
0 100 1 105 23 5 20 35 221 35 232 0 3 62 5 139 5 l138 0 17 -117 c10 -65 19
-124 21 -130 3 -10 35 -13 115 -13 98 0 110 2 109 18 0 9 -51 332 -112 717
l-112 700 -163 3 c-125 2 -163 0 -167 -10z m209 -623 l52 -345 -109 0 c-108 0
-109 0 -104 23 3 12 27 169 54 349 26 179 50 325 52 322 2 -2 27 -159 55 -349z"/>
<path d="M19350 8120 l0 -90 -83 0 c-47 0 -107 -7 -136 -16 -73 -21 -143 -88
-173 -163 -21 -52 -23 -74 -26 -331 -5 -352 7 -418 90 -500 53 -53 110 -74
223 -80 l100 -5 3 -83 3 -83 107 3 107 3 5 80 5 80 100 6 c124 7 172 26 230
91 71 79 78 112 83 411 2 168 0 282 -8 324 -31 178 -136 263 -326 263 l-83 0
-3 88 -3 87 -107 3 -108 3 0 -91z m0 -641 l0 -351 -70 4 c-123 7 -129 25 -130
353 0 241 5 283 42 322 18 20 31 23 90 23 l68 0 0 -351z m380 323 c25 -25 29
-38 35 -115 4 -48 5 -174 3 -280 -5 -253 -18 -277 -143 -277 l-55 0 0 350 0
350 66 0 c59 0 69 -3 94 -28z"/>
<path d="M20147 8203 c-4 -3 -7 -327 -7 -720 l0 -713 305 0 305 0 0 105 0 105
-190 0 -190 0 0 210 0 210 150 0 150 0 0 100 0 100 -150 0 -150 0 0 200 0 200
190 0 190 0 0 105 0 105 -298 0 c-164 0 -302 -3 -305 -7z"/>
<path d="M21035 8198 c-2 -7 -13 -220 -25 -473 -25 -553 -34 -664 -56 -707
-21 -42 -31 -48 -76 -48 l-38 0 0 -195 0 -195 110 0 110 0 0 95 0 95 240 0
240 0 0 -95 0 -95 110 0 110 0 0 194 0 195 -47 3 -48 3 -3 618 -2 617 -310 0
c-240 0 -312 -3 -315 -12z m395 -713 l0 -515 -140 0 c-127 0 -160 6 -130 25
28 17 40 123 60 510 11 220 20 421 20 448 l0 47 95 0 95 0 0 -515z"/>
<path d="M21890 7491 l0 -721 110 0 110 0 0 269 0 268 108 5 c131 6 194 29
252 95 66 76 75 117 75 359 l0 211 -35 69 c-38 74 -93 122 -168 145 -20 6
-130 13 -244 16 l-208 5 0 -721z m400 481 c36 -37 43 -84 38 -255 -3 -105 -7
-139 -21 -160 -20 -31 -70 -47 -144 -47 l-53 0 0 245 0 245 76 0 c70 0 78 -2
104 -28z"/>
<path d="M22824 8196 c-9 -24 -230 -1417 -225 -1421 2 -3 48 -5 102 -5 l97 0
10 63 c6 34 14 85 17 112 12 92 0 85 153 85 l138 0 17 -122 c10 -67 20 -125
23 -130 3 -4 55 -8 116 -8 l110 0 -6 33 c-3 17 -53 329 -111 692 -58 363 -108
672 -111 688 l-6 27 -159 0 c-125 0 -161 -3 -165 -14z m206 -606 c27 -184 50
-341 50 -347 0 -10 -28 -13 -105 -13 -58 0 -105 4 -105 8 0 4 23 158 50 341
28 183 50 338 50 344 0 45 16 -46 60 -333z"/>
<path d="M11207 6193 c-4 -3 -7 -1050 -7 -2325 l0 -2318 320 0 320 0 1 1628
c1 895 4 1614 8 1597 4 -16 126 -749 272 -1627 l264 -1598 348 0 c191 0 347 3
347 8 -1 4 111 744 247 1646 l248 1639 3 -1647 2 -1646 345 0 345 0 0 2325 0
2325 -507 -2 -508 -3 -246 -1633 c-136 -898 -249 -1635 -251 -1637 -4 -5 -2
-22 -308 1860 -116 710 -215 1318 -221 1353 l-11 62 -502 0 c-277 0 -506 -3
-509 -7z"/>
<path d="M16100 5920 l0 -280 -175 0 c-312 0 -493 -32 -670 -119 -261 -129
-412 -341 -488 -691 -19 -91 -21 -132 -24 -900 -5 -873 -2 -943 46 -1133 84
-331 278 -551 578 -653 141 -48 257 -64 511 -71 l222 -6 0 -259 0 -258 360 0
360 0 0 258 0 259 223 6 c129 3 259 13 310 22 440 78 689 322 789 775 21 92
22 124 25 925 3 580 1 860 -7 929 -54 474 -304 777 -722 876 -119 28 -247 40
-445 40 l-173 0 -2 278 -3 277 -357 3 -358 2 0 -280z m0 -2071 l0 -1141 -187
4 c-145 4 -199 9 -234 22 -95 35 -161 118 -196 247 -17 59 -18 131 -18 874 0
748 1 815 18 875 36 131 98 206 199 241 44 15 85 18 236 19 l182 0 0 -1141z
m1137 1120 c111 -41 179 -140 203 -297 7 -44 10 -344 8 -862 l-3 -795 -23 -67
c-41 -123 -127 -204 -237 -226 -32 -7 -127 -12 -212 -12 l-153 0 0 1140 0
1140 180 0 c158 0 186 -3 237 -21z"/>
<path d="M18460 5865 l0 -335 380 0 380 0 0 -1990 0 -1990 365 0 365 0 0 1990
0 1990 380 0 380 0 0 335 0 335 -1125 0 -1125 0 0 -335z"/>
<path d="M21030 3875 l0 -2325 375 0 374 0 20 68 c189 642 642 2253 748 2657
l138 530 3 -1627 2 -1628 330 0 330 0 -2 2323 -3 2322 -398 3 -397 2 -10 -22
c-6 -13 -145 -455 -309 -983 -244 -788 -320 -1046 -422 -1440 l-124 -480 -3
1463 -2 1462 -325 0 -325 0 0 -2325z"/>
</g>
</svg>
